<?xml version="1.0" encoding="UTF-8"?>
<svg xmlns="http://www.w3.org/2000/svg" xmlns:xlink="http://www.w3.org/1999/xlink" width="16pt" height="16pt" viewBox="0 0 16 16" version="1.1">
<g id="surface1">
<path style=" stroke:none;fill-rule:nonzero;fill:rgb(1.176471%,68.627451%,93.72549%);fill-opacity:1;" d="M 0.851562 8.089844 C 0.84375 7.734375 0.867188 7.347656 0.929688 6.960938 C 0.941406 6.875 0.914062 6.808594 0.882812 6.738281 C -0.214844 4.5625 0.648438 1.929688 2.835938 0.859375 C 4.140625 0.222656 5.460938 0.25 6.761719 0.894531 C 6.84375 0.933594 6.914062 0.957031 7.011719 0.945312 C 9.007812 0.710938 10.804688 1.191406 12.378906 2.445312 C 13.78125 3.570312 14.632812 5.027344 14.9375 6.800781 C 15.058594 7.496094 15.074219 8.195312 14.976562 8.898438 C 14.960938 9.019531 14.976562 9.117188 15.039062 9.226562 C 16.527344 11.828125 14.988281 15.128906 12.03125 15.664062 C 10.941406 15.859375 9.921875 15.664062 8.976562 15.089844 C 8.898438 15.042969 8.824219 15.019531 8.726562 15.027344 C 7.042969 15.195312 5.472656 14.84375 4.058594 13.902344 C 2.375 12.78125 1.34375 11.214844 0.964844 9.226562 C 0.898438 8.867188 0.867188 8.496094 0.851562 8.089844 Z M 14.410156 8.007812 C 14.414062 7.46875 14.355469 6.960938 14.234375 6.464844 C 13.421875 3.167969 10.320312 1.089844 6.957031 1.585938 C 6.835938 1.605469 6.726562 1.589844 6.617188 1.527344 C 5.835938 1.085938 5.003906 0.941406 4.117188 1.089844 C 2.398438 1.375 1.066406 2.914062 1.035156 4.65625 C 1.023438 5.351562 1.179688 6.007812 1.523438 6.617188 C 1.570312 6.699219 1.589844 6.777344 1.570312 6.882812 C 1.507812 7.226562 1.476562 7.570312 1.476562 7.921875 C 1.476562 9.605469 2.019531 11.097656 3.167969 12.332031 C 4.6875 13.960938 6.574219 14.636719 8.789062 14.382812 C 8.929688 14.367188 9.046875 14.390625 9.167969 14.472656 C 10.148438 15.117188 11.210938 15.285156 12.332031 14.945312 C 14.691406 14.238281 15.710938 11.503906 14.414062 9.402344 C 14.339844 9.289062 14.289062 9.183594 14.320312 9.039062 C 14.382812 8.691406 14.414062 8.335938 14.410156 8.007812 Z M 14.410156 8.007812 "/>
<path style=" stroke:none;fill-rule:nonzero;fill:rgb(0.392157%,68.627451%,93.72549%);fill-opacity:1;" d="M 7.863281 11.964844 C 7.101562 11.960938 6.359375 11.855469 5.683594 11.46875 C 5.382812 11.296875 5.113281 11.085938 4.910156 10.804688 C 4.742188 10.570312 4.648438 10.308594 4.648438 10.019531 C 4.648438 9.445312 5.210938 9.101562 5.726562 9.367188 C 5.871094 9.4375 5.980469 9.546875 6.082031 9.667969 C 6.183594 9.792969 6.292969 9.914062 6.390625 10.039062 C 6.804688 10.578125 7.386719 10.703125 8.023438 10.675781 C 8.34375 10.664062 8.648438 10.574219 8.910156 10.375 C 9.203125 10.148438 9.347656 9.859375 9.277344 9.492188 C 9.214844 9.148438 8.960938 8.972656 8.648438 8.882812 C 8.078125 8.726562 7.503906 8.585938 6.929688 8.441406 C 6.539062 8.339844 6.15625 8.238281 5.789062 8.070312 C 4.269531 7.367188 4.359375 5.273438 5.476562 4.492188 C 5.964844 4.148438 6.507812 3.960938 7.09375 3.886719 C 8.042969 3.769531 8.949219 3.902344 9.792969 4.378906 C 10.039062 4.515625 10.269531 4.679688 10.453125 4.898438 C 10.585938 5.054688 10.683594 5.226562 10.726562 5.429688 C 10.789062 5.734375 10.75 6.003906 10.480469 6.195312 C 10.203125 6.398438 9.824219 6.414062 9.554688 6.242188 C 9.449219 6.171875 9.367188 6.082031 9.277344 5.992188 C 9.007812 5.699219 8.742188 5.40625 8.335938 5.304688 C 7.902344 5.195312 7.46875 5.164062 7.039062 5.289062 C 6.714844 5.382812 6.464844 5.578125 6.378906 5.929688 C 6.304688 6.210938 6.398438 6.429688 6.628906 6.597656 C 6.878906 6.777344 7.164062 6.867188 7.460938 6.9375 C 8.050781 7.078125 8.648438 7.199219 9.238281 7.351562 C 9.753906 7.480469 10.230469 7.703125 10.585938 8.117188 C 11.449219 9.117188 11.152344 10.761719 9.984375 11.476562 C 9.429688 11.816406 8.816406 11.929688 8.179688 11.964844 C 8.070312 11.972656 7.964844 11.964844 7.863281 11.964844 Z M 7.863281 11.964844 "/>
</g>
</svg>
