<?xml version="1.0" ?><!DOCTYPE svg  PUBLIC '-//W3C//DTD SVG 1.1//EN'  'http://www.w3.org/Graphics/SVG/1.1/DTD/svg11.dtd'><svg height="512px" id="Untitled-P%E1gina%201" style="background-color:#ffffff00" version="1.1" viewBox="0 0 512 512" width="512px" xml:space="preserve" xmlns="http://www.w3.org/2000/svg" xmlns:xlink="http://www.w3.org/1999/xlink"><g id="Camada%201"><g><g><path d="M 482.6929 307.9105 C 486.1344 291.9788 487.9808 275.5067 487.9808 258.5583 C 487.9808 131.5823 385.2534 28.586 258.532 28.586 C 245.1866 28.586 232.0926 29.7678 219.3184 31.9849 C 198.8205 19.0077 174.5613 11.5 148.5378 11.5 C 75.024 11.5 15.5 71.2045 15.5 144.8799 C 15.5 169.4872 22.1544 192.5096 33.7632 212.3074 C 30.7193 227.2587 29.1197 242.7367 29.1197 258.5583 C 29.1197 385.5757 131.8332 488.5124 258.532 488.5124 C 272.9102 488.5124 286.9319 487.1932 300.5606 484.6372 C 319.3083 494.7513 340.6837 500.5 363.4302 500.5 C 436.976 500.5 496.5 440.8001 496.5 367.1063 C 496.5 345.8429 491.5319 325.7476 482.6929 307.9105 ZM 376.1951 368.4485 C 365.6331 383.5051 349.9523 395.4379 329.5824 403.8983 C 309.4911 412.2947 285.4009 416.5455 257.9378 416.5455 C 224.9628 416.5455 197.3535 410.7419 175.777 399.2627 C 160.3247 390.9213 147.6375 379.6161 137.9757 365.668 C 128.2272 351.6054 123.3324 337.6069 123.3324 324.0894 C 123.3324 315.7113 126.5316 308.3914 132.8843 302.3999 C 139.1732 296.4542 147.1896 293.4813 156.8055 293.4813 C 164.7122 293.4813 171.5128 295.8588 177.0384 300.5035 C 182.2943 305.0247 186.8234 311.6712 190.498 320.2187 C 194.561 329.5724 198.9942 337.4328 203.6331 343.6488 C 208.1714 349.6173 214.6201 354.6378 222.9016 358.5497 C 231.1832 362.5165 242.4444 364.5045 256.2194 364.5045 C 275.1954 364.5045 290.7527 360.4781 302.4711 352.4391 C 313.8923 344.6428 319.4088 335.2158 319.4088 323.7733 C 319.4088 314.667 316.5111 307.544 310.6017 301.9419 C 304.3083 296.0695 296.0818 291.5345 286.0818 288.3738 C 275.6752 285.1719 261.5255 281.6311 243.9709 277.9116 C 220.1685 272.8362 199.9128 266.7898 183.871 259.9187 C 167.3858 252.892 154.1365 243.1444 144.4565 231.024 C 134.5982 218.6241 129.6165 203.1826 129.6165 184.9057 C 129.6165 167.5817 134.8404 151.8838 145.1924 138.3846 C 155.407 124.9999 170.4434 114.5238 189.7027 107.4146 C 208.7884 100.3695 231.3934 96.7737 257.0649 96.7737 C 277.5171 96.7737 295.5424 99.174 310.6017 103.8417 C 325.725 108.5552 338.4259 114.9131 348.4852 122.7828 C 358.5399 130.6753 366.0627 139.1129 370.7975 147.8986 C 375.5233 156.7622 377.9547 165.5891 377.9547 174.1137 C 377.9547 182.3543 374.7737 189.8116 368.5307 196.2932 C 362.251 202.8619 354.3261 206.2014 344.9478 206.2014 C 336.4973 206.2014 329.8017 204.0804 325.1994 200.0082 C 320.8987 196.1971 316.47 190.288 311.5249 181.7405 C 305.8074 170.834 298.8651 162.2498 290.9035 156.2354 C 283.2025 150.3034 270.3234 147.3718 252.6134 147.3718 C 236.1465 147.3718 222.8102 150.647 212.8697 157.2019 C 203.2858 163.4728 198.6331 170.669 198.6331 179.2257 C 198.6331 184.4568 200.1505 188.8268 203.2583 192.6012 C 206.5033 196.6505 211.0827 200.0769 216.9053 202.9993 C 222.9016 206.0502 229.1631 208.4825 235.3604 210.2003 C 241.7451 211.9776 252.426 214.584 267.1105 218.0149 C 285.666 222.0001 302.7361 226.4891 317.8275 231.2988 C 333.1152 236.2184 346.3097 242.2328 357.0866 249.2825 C 368.0828 256.4283 376.7664 265.6217 382.95 276.6519 C 389.1337 287.6959 392.2918 301.3098 392.2918 317.1772 C 392.2918 336.0861 386.8759 353.3873 376.1951 368.4485 Z" fill="none" stroke="#35a6ff" stroke-width="15"/></g><g><path d="M 482.6929 307.9105 C 486.1344 291.9788 487.9808 275.5067 487.9808 258.5583 C 487.9808 131.5823 385.2534 28.586 258.532 28.586 C 245.1866 28.586 232.0926 29.7678 219.3184 31.9849 C 198.8205 19.0077 174.5613 11.5 148.5378 11.5 C 75.024 11.5 15.5 71.2045 15.5 144.8799 C 15.5 169.4872 22.1544 192.5096 33.7632 212.3074 C 30.7193 227.2587 29.1197 242.7367 29.1197 258.5583 C 29.1197 385.5757 131.8332 488.5124 258.532 488.5124 C 272.9102 488.5124 286.9319 487.1932 300.5606 484.6372 C 319.3083 494.7513 340.6837 500.5 363.4302 500.5 C 436.976 500.5 496.5 440.8001 496.5 367.1063 C 496.5 345.8429 491.5319 325.7476 482.6929 307.9105 ZM 376.1951 368.4485 C 365.6331 383.5051 349.9523 395.4379 329.5824 403.8983 C 309.4911 412.2947 285.4009 416.5455 257.9378 416.5455 C 224.9628 416.5455 197.3535 410.7419 175.777 399.2627 C 160.3247 390.9213 147.6375 379.6161 137.9757 365.668 C 128.2272 351.6054 123.3324 337.6069 123.3324 324.0894 C 123.3324 315.7113 126.5316 308.3914 132.8843 302.3999 C 139.1732 296.4542 147.1896 293.4813 156.8055 293.4813 C 164.7122 293.4813 171.5128 295.8588 177.0384 300.5035 C 182.2943 305.0247 186.8234 311.6712 190.498 320.2187 C 194.561 329.5724 198.9942 337.4328 203.6331 343.6488 C 208.1714 349.6173 214.6201 354.6378 222.9016 358.5497 C 231.1832 362.5165 242.4444 364.5045 256.2194 364.5045 C 275.1954 364.5045 290.7527 360.4781 302.4711 352.4391 C 313.8923 344.6428 319.4088 335.2158 319.4088 323.7733 C 319.4088 314.667 316.5111 307.544 310.6017 301.9419 C 304.3083 296.0695 296.0818 291.5345 286.0818 288.3738 C 275.6752 285.1719 261.5255 281.6311 243.9709 277.9116 C 220.1685 272.8362 199.9128 266.7898 183.871 259.9187 C 167.3858 252.892 154.1365 243.1444 144.4565 231.024 C 134.5982 218.6241 129.6165 203.1826 129.6165 184.9057 C 129.6165 167.5817 134.8404 151.8838 145.1924 138.3846 C 155.407 124.9999 170.4434 114.5238 189.7027 107.4146 C 208.7884 100.3695 231.3934 96.7737 257.0649 96.7737 C 277.5171 96.7737 295.5424 99.174 310.6017 103.8417 C 325.725 108.5552 338.4259 114.9131 348.4852 122.7828 C 358.5399 130.6753 366.0627 139.1129 370.7975 147.8986 C 375.5233 156.7622 377.9547 165.5891 377.9547 174.1137 C 377.9547 182.3543 374.7737 189.8116 368.5307 196.2932 C 362.251 202.8619 354.3261 206.2014 344.9478 206.2014 C 336.4973 206.2014 329.8017 204.0804 325.1994 200.0082 C 320.8987 196.1971 316.47 190.288 311.5249 181.7405 C 305.8074 170.834 298.8651 162.2498 290.9035 156.2354 C 283.2025 150.3034 270.3234 147.3718 252.6134 147.3718 C 236.1465 147.3718 222.8102 150.647 212.8697 157.2019 C 203.2858 163.4728 198.6331 170.669 198.6331 179.2257 C 198.6331 184.4568 200.1505 188.8268 203.2583 192.6012 C 206.5033 196.6505 211.0827 200.0769 216.9053 202.9993 C 222.9016 206.0502 229.1631 208.4825 235.3604 210.2003 C 241.7451 211.9776 252.426 214.584 267.1105 218.0149 C 285.666 222.0001 302.7361 226.4891 317.8275 231.2988 C 333.1152 236.2184 346.3097 242.2328 357.0866 249.2825 C 368.0828 256.4283 376.7664 265.6217 382.95 276.6519 C 389.1337 287.6959 392.2918 301.3098 392.2918 317.1772 C 392.2918 336.0861 386.8759 353.3873 376.1951 368.4485 Z" fill="none" stroke="#35a6ff" stroke-width="15"/></g><path d="M 482.6929 307.9105 C 486.1344 291.9788 487.9808 275.5067 487.9808 258.5583 C 487.9808 131.5823 385.2534 28.586 258.532 28.586 C 245.1866 28.586 232.0926 29.7678 219.3184 31.9849 C 198.8205 19.0077 174.5613 11.5 148.5378 11.5 C 75.024 11.5 15.5 71.2045 15.5 144.8799 C 15.5 169.4872 22.1544 192.5096 33.7632 212.3074 C 30.7193 227.2587 29.1197 242.7367 29.1197 258.5583 C 29.1197 385.5757 131.8332 488.5124 258.532 488.5124 C 272.9102 488.5124 286.9319 487.1932 300.5606 484.6372 C 319.3083 494.7513 340.6837 500.5 363.4302 500.5 C 436.976 500.5 496.5 440.8001 496.5 367.1063 C 496.5 345.8429 491.5319 325.7476 482.6929 307.9105 ZM 376.1951 368.4485 C 365.6331 383.5051 349.9523 395.4379 329.5824 403.8983 C 309.4911 412.2947 285.4009 416.5455 257.9378 416.5455 C 224.9628 416.5455 197.3535 410.7419 175.777 399.2627 C 160.3247 390.9213 147.6375 379.6161 137.9757 365.668 C 128.2272 351.6054 123.3324 337.6069 123.3324 324.0894 C 123.3324 315.7113 126.5316 308.3914 132.8843 302.3999 C 139.1732 296.4542 147.1896 293.4813 156.8055 293.4813 C 164.7122 293.4813 171.5128 295.8588 177.0384 300.5035 C 182.2943 305.0247 186.8234 311.6712 190.498 320.2187 C 194.561 329.5724 198.9942 337.4328 203.6331 343.6488 C 208.1714 349.6173 214.6201 354.6378 222.9016 358.5497 C 231.1832 362.5165 242.4444 364.5045 256.2194 364.5045 C 275.1954 364.5045 290.7527 360.4781 302.4711 352.4391 C 313.8923 344.6428 319.4088 335.2158 319.4088 323.7733 C 319.4088 314.667 316.5111 307.544 310.6017 301.9419 C 304.3083 296.0695 296.0818 291.5345 286.0818 288.3738 C 275.6752 285.1719 261.5255 281.6311 243.9709 277.9116 C 220.1685 272.8362 199.9128 266.7898 183.871 259.9187 C 167.3858 252.892 154.1365 243.1444 144.4565 231.024 C 134.5982 218.6241 129.6165 203.1826 129.6165 184.9057 C 129.6165 167.5817 134.8404 151.8838 145.1924 138.3846 C 155.407 124.9999 170.4434 114.5238 189.7027 107.4146 C 208.7884 100.3695 231.3934 96.7737 257.0649 96.7737 C 277.5171 96.7737 295.5424 99.174 310.6017 103.8417 C 325.725 108.5552 338.4259 114.9131 348.4852 122.7828 C 358.5399 130.6753 366.0627 139.1129 370.7975 147.8986 C 375.5233 156.7622 377.9547 165.5891 377.9547 174.1137 C 377.9547 182.3543 374.7737 189.8116 368.5307 196.2932 C 362.251 202.8619 354.3261 206.2014 344.9478 206.2014 C 336.4973 206.2014 329.8017 204.0804 325.1994 200.0082 C 320.8987 196.1971 316.47 190.288 311.5249 181.7405 C 305.8074 170.834 298.8651 162.2498 290.9035 156.2354 C 283.2025 150.3034 270.3234 147.3718 252.6134 147.3718 C 236.1465 147.3718 222.8102 150.647 212.8697 157.2019 C 203.2858 163.4728 198.6331 170.669 198.6331 179.2257 C 198.6331 184.4568 200.1505 188.8268 203.2583 192.6012 C 206.5033 196.6505 211.0827 200.0769 216.9053 202.9993 C 222.9016 206.0502 229.1631 208.4825 235.3604 210.2003 C 241.7451 211.9776 252.426 214.584 267.1105 218.0149 C 285.666 222.0001 302.7361 226.4891 317.8275 231.2988 C 333.1152 236.2184 346.3097 242.2328 357.0866 249.2825 C 368.0828 256.4283 376.7664 265.6217 382.95 276.6519 C 389.1337 287.6959 392.2918 301.3098 392.2918 317.1772 C 392.2918 336.0861 386.8759 353.3873 376.1951 368.4485 Z" fill="none" stroke="#ffffff" stroke-width="5"/></g></g></svg>