<?xml version="1.0" encoding="UTF-8"?>
<svg xmlns="http://www.w3.org/2000/svg" xmlns:xlink="http://www.w3.org/1999/xlink" width="16pt" height="16pt" viewBox="0 0 16 16" version="1.1">
<g id="surface1">
<path style="fill:none;stroke-width:15;stroke-linecap:butt;stroke-linejoin:miter;stroke:rgb(20.784314%,65.098039%,100%);stroke-opacity:1;stroke-miterlimit:4;" d="M 482.75 307.875 C 486.125 292 488 275.5 488 258.5 C 488 131.625 385.25 28.625 258.5 28.625 C 245.125 28.625 232.125 29.75 219.375 32 C 198.875 19 174.5 11.5 148.5 11.5 C 75 11.5 15.5 71.25 15.5 144.875 C 15.5 169.5 22.125 192.5 33.75 212.25 C 30.75 227.25 29.125 242.75 29.125 258.5 C 29.125 385.625 131.875 488.5 258.5 488.5 C 272.875 488.5 286.875 487.25 300.5 484.625 C 319.25 494.75 340.625 500.5 363.375 500.5 C 437 500.5 496.5 440.75 496.5 367.125 C 496.5 345.875 491.5 325.75 482.75 307.875 Z M 376.25 368.5 C 365.625 383.5 350 395.5 329.625 403.875 C 309.5 412.25 285.375 416.5 258 416.5 C 225 416.5 197.375 410.75 175.75 399.25 C 160.375 390.875 147.625 379.625 138 365.625 C 128.25 351.625 123.375 337.625 123.375 324.125 C 123.375 315.75 126.5 308.375 132.875 302.375 C 139.125 296.5 147.25 293.5 156.75 293.5 C 164.75 293.5 171.5 295.875 177 300.5 C 182.25 305 186.875 311.625 190.5 320.25 C 194.5 329.625 199 337.375 203.625 343.625 C 208.125 349.625 214.625 354.625 222.875 358.5 C 231.125 362.5 242.5 364.5 256.25 364.5 C 275.25 364.5 290.75 360.5 302.5 352.5 C 313.875 344.625 319.375 335.25 319.375 323.75 C 319.375 314.625 316.5 307.5 310.625 302 C 304.25 296.125 296.125 291.5 286.125 288.375 C 275.625 285.125 261.5 281.625 244 277.875 C 220.125 272.875 199.875 266.75 183.875 259.875 C 167.375 252.875 154.125 243.125 144.5 231 C 134.625 218.625 129.625 203.125 129.625 184.875 C 129.625 167.625 134.875 151.875 145.25 138.375 C 155.375 125 170.5 114.5 189.75 107.375 C 208.75 100.375 231.375 96.75 257.125 96.75 C 277.5 96.75 295.5 99.125 310.625 103.875 C 325.75 108.5 338.375 114.875 348.5 122.75 C 358.5 130.625 366.125 139.125 370.75 147.875 C 375.5 156.75 378 165.625 378 174.125 C 378 182.375 374.75 189.75 368.5 196.25 C 362.25 202.875 354.375 206.25 345 206.25 C 336.5 206.25 329.75 204.125 325.25 200 C 320.875 196.25 316.5 190.25 311.5 181.75 C 305.75 170.875 298.875 162.25 290.875 156.25 C 283.25 150.25 270.375 147.375 252.625 147.375 C 236.125 147.375 222.75 150.625 212.875 157.25 C 203.25 163.5 198.625 170.625 198.625 179.25 C 198.625 184.5 200.125 188.875 203.25 192.625 C 206.5 196.625 211.125 200.125 216.875 203 C 222.875 206 229.125 208.5 235.375 210.25 C 241.75 212 252.375 214.625 267.125 218 C 285.625 222 302.75 226.5 317.875 231.25 C 333.125 236.25 346.25 242.25 357.125 249.25 C 368.125 256.375 376.75 265.625 383 276.625 C 389.125 287.75 392.25 301.25 392.25 317.125 C 392.25 336.125 386.875 353.375 376.25 368.5 Z M 376.25 368.5 " transform="matrix(0.03125,0,0,0.03125,0,0)"/>
<path style="fill:none;stroke-width:15;stroke-linecap:butt;stroke-linejoin:miter;stroke:rgb(20.784314%,65.098039%,100%);stroke-opacity:1;stroke-miterlimit:4;" d="M 482.75 307.875 C 486.125 292 488 275.5 488 258.5 C 488 131.625 385.25 28.625 258.5 28.625 C 245.125 28.625 232.125 29.75 219.375 32 C 198.875 19 174.5 11.5 148.5 11.5 C 75 11.5 15.5 71.25 15.5 144.875 C 15.5 169.5 22.125 192.5 33.75 212.25 C 30.75 227.25 29.125 242.75 29.125 258.5 C 29.125 385.625 131.875 488.5 258.5 488.5 C 272.875 488.5 286.875 487.25 300.5 484.625 C 319.25 494.75 340.625 500.5 363.375 500.5 C 437 500.5 496.5 440.75 496.5 367.125 C 496.5 345.875 491.5 325.75 482.75 307.875 Z M 376.25 368.5 C 365.625 383.5 350 395.5 329.625 403.875 C 309.5 412.25 285.375 416.5 258 416.5 C 225 416.5 197.375 410.75 175.75 399.25 C 160.375 390.875 147.625 379.625 138 365.625 C 128.25 351.625 123.375 337.625 123.375 324.125 C 123.375 315.75 126.5 308.375 132.875 302.375 C 139.125 296.5 147.25 293.5 156.75 293.5 C 164.75 293.5 171.5 295.875 177 300.5 C 182.25 305 186.875 311.625 190.5 320.25 C 194.5 329.625 199 337.375 203.625 343.625 C 208.125 349.625 214.625 354.625 222.875 358.5 C 231.125 362.5 242.5 364.5 256.25 364.5 C 275.25 364.5 290.75 360.5 302.5 352.5 C 313.875 344.625 319.375 335.25 319.375 323.75 C 319.375 314.625 316.5 307.5 310.625 302 C 304.25 296.125 296.125 291.5 286.125 288.375 C 275.625 285.125 261.5 281.625 244 277.875 C 220.125 272.875 199.875 266.75 183.875 259.875 C 167.375 252.875 154.125 243.125 144.5 231 C 134.625 218.625 129.625 203.125 129.625 184.875 C 129.625 167.625 134.875 151.875 145.25 138.375 C 155.375 125 170.5 114.5 189.75 107.375 C 208.75 100.375 231.375 96.75 257.125 96.75 C 277.5 96.75 295.5 99.125 310.625 103.875 C 325.75 108.5 338.375 114.875 348.5 122.75 C 358.5 130.625 366.125 139.125 370.75 147.875 C 375.5 156.75 378 165.625 378 174.125 C 378 182.375 374.75 189.75 368.5 196.25 C 362.25 202.875 354.375 206.25 345 206.25 C 336.5 206.25 329.75 204.125 325.25 200 C 320.875 196.25 316.5 190.25 311.5 181.75 C 305.75 170.875 298.875 162.25 290.875 156.25 C 283.25 150.25 270.375 147.375 252.625 147.375 C 236.125 147.375 222.75 150.625 212.875 157.25 C 203.25 163.5 198.625 170.625 198.625 179.25 C 198.625 184.5 200.125 188.875 203.25 192.625 C 206.5 196.625 211.125 200.125 216.875 203 C 222.875 206 229.125 208.5 235.375 210.25 C 241.75 212 252.375 214.625 267.125 218 C 285.625 222 302.75 226.5 317.875 231.25 C 333.125 236.25 346.25 242.25 357.125 249.25 C 368.125 256.375 376.75 265.625 383 276.625 C 389.125 287.75 392.25 301.25 392.25 317.125 C 392.25 336.125 386.875 353.375 376.25 368.5 Z M 376.25 368.5 " transform="matrix(0.03125,0,0,0.03125,0,0)"/>
<path style="fill:none;stroke-width:5;stroke-linecap:butt;stroke-linejoin:miter;stroke:rgb(100%,100%,100%);stroke-opacity:1;stroke-miterlimit:4;" d="M 482.75 307.875 C 486.125 292 488 275.5 488 258.5 C 488 131.625 385.25 28.625 258.5 28.625 C 245.125 28.625 232.125 29.75 219.375 32 C 198.875 19 174.5 11.5 148.5 11.5 C 75 11.5 15.5 71.25 15.5 144.875 C 15.5 169.5 22.125 192.5 33.75 212.25 C 30.75 227.25 29.125 242.75 29.125 258.5 C 29.125 385.625 131.875 488.5 258.5 488.5 C 272.875 488.5 286.875 487.25 300.5 484.625 C 319.25 494.75 340.625 500.5 363.375 500.5 C 437 500.5 496.5 440.75 496.5 367.125 C 496.5 345.875 491.5 325.75 482.75 307.875 Z M 376.25 368.5 C 365.625 383.5 350 395.5 329.625 403.875 C 309.5 412.25 285.375 416.5 258 416.5 C 225 416.5 197.375 410.75 175.75 399.25 C 160.375 390.875 147.625 379.625 138 365.625 C 128.25 351.625 123.375 337.625 123.375 324.125 C 123.375 315.75 126.5 308.375 132.875 302.375 C 139.125 296.5 147.25 293.5 156.75 293.5 C 164.75 293.5 171.5 295.875 177 300.5 C 182.25 305 186.875 311.625 190.5 320.25 C 194.5 329.625 199 337.375 203.625 343.625 C 208.125 349.625 214.625 354.625 222.875 358.5 C 231.125 362.5 242.5 364.5 256.25 364.5 C 275.25 364.5 290.75 360.5 302.5 352.5 C 313.875 344.625 319.375 335.25 319.375 323.75 C 319.375 314.625 316.5 307.5 310.625 302 C 304.25 296.125 296.125 291.5 286.125 288.375 C 275.625 285.125 261.5 281.625 244 277.875 C 220.125 272.875 199.875 266.75 183.875 259.875 C 167.375 252.875 154.125 243.125 144.5 231 C 134.625 218.625 129.625 203.125 129.625 184.875 C 129.625 167.625 134.875 151.875 145.25 138.375 C 155.375 125 170.5 114.5 189.75 107.375 C 208.75 100.375 231.375 96.75 257.125 96.75 C 277.5 96.75 295.5 99.125 310.625 103.875 C 325.75 108.5 338.375 114.875 348.5 122.75 C 358.5 130.625 366.125 139.125 370.75 147.875 C 375.5 156.75 378 165.625 378 174.125 C 378 182.375 374.75 189.75 368.5 196.25 C 362.25 202.875 354.375 206.25 345 206.25 C 336.5 206.25 329.75 204.125 325.25 200 C 320.875 196.25 316.5 190.25 311.5 181.75 C 305.75 170.875 298.875 162.25 290.875 156.25 C 283.25 150.25 270.375 147.375 252.625 147.375 C 236.125 147.375 222.75 150.625 212.875 157.25 C 203.25 163.5 198.625 170.625 198.625 179.25 C 198.625 184.5 200.125 188.875 203.25 192.625 C 206.5 196.625 211.125 200.125 216.875 203 C 222.875 206 229.125 208.5 235.375 210.25 C 241.75 212 252.375 214.625 267.125 218 C 285.625 222 302.75 226.5 317.875 231.25 C 333.125 236.25 346.25 242.25 357.125 249.25 C 368.125 256.375 376.75 265.625 383 276.625 C 389.125 287.75 392.25 301.25 392.25 317.125 C 392.25 336.125 386.875 353.375 376.25 368.5 Z M 376.25 368.5 " transform="matrix(0.03125,0,0,0.03125,0,0)"/>
</g>
</svg>
